<svg width="22" height="18" viewBox="0 0 22 18" fill="none" xmlns="http://www.w3.org/2000/svg">
<path d="M21.9695 2.13063C21.1609 2.49269 20.2923 2.73633 19.3806 2.84623C20.3117 2.28397 21.0257 1.39372 21.362 0.332245C20.4917 0.852762 19.5267 1.23101 18.4993 1.43547C17.6771 0.552037 16.5061 0 15.2099 0C12.7207 0 10.703 2.03521 10.703 4.54409C10.703 4.90018 10.7435 5.24776 10.8196 5.57916C7.0739 5.39003 3.75326 3.58058 1.52936 0.830612C1.14237 1.50192 0.920148 2.28227 0.920148 3.11629C0.920148 4.69232 1.71524 6.08349 2.92436 6.89791C2.18588 6.87406 1.49049 6.6696 0.88297 6.32969C0.88297 6.34928 0.88297 6.36717 0.88297 6.38677C0.88297 8.58895 2.43598 10.4257 4.4985 10.8423C4.12081 10.9462 3.72199 11.0016 3.3105 11.0016C3.02069 11.0016 2.73763 10.9726 2.46302 10.9206C3.03674 12.7258 4.70129 14.0403 6.6734 14.077C5.13137 15.296 3.18799 16.0227 1.07562 16.0227C0.712291 16.0227 0.353188 16.0014 0 15.9588C1.99492 17.2478 4.36331 18 6.90914 18C15.1998 18 19.7321 11.0757 19.7321 5.07057C19.7321 4.87377 19.7278 4.67784 19.7194 4.48275C20.6007 3.84126 21.3653 3.04132 21.9695 2.13063Z" fill="#6F7175"/>
</svg>
