<svg width="23" height="18" viewBox="0 0 23 18" fill="none" xmlns="http://www.w3.org/2000/svg">
<path d="M22.2312 3.09375C22.0281 1.85669 21.0605 0.955811 19.9375 0.674561C18.2571 0.28125 15.147 0 11.7821 0C8.41917 0 5.25934 0.28125 3.57688 0.674561C2.45591 0.955811 1.48626 1.79956 1.28317 3.09375C1.07809 4.5 0.875 6.46875 0.875 9C0.875 11.5312 1.07809 13.5 1.33295 14.9062C1.53803 16.1433 2.50569 17.0442 3.62666 17.3254C5.41066 17.7188 8.46895 18 11.8339 18C15.1988 18 18.2571 17.7188 20.0411 17.3254C21.162 17.0442 22.1297 16.2004 22.3348 14.9062C22.5379 13.5 22.7927 11.4741 22.8445 9C22.7409 6.46875 22.4861 4.5 22.2312 3.09375ZM9.03043 12.9375V5.0625L15.2485 9L9.03043 12.9375Z" fill="#6F7175"/>
</svg>
