<svg width="18" height="20" viewBox="0 0 18 20" fill="none" xmlns="http://www.w3.org/2000/svg">
<path d="M14.8334 7.02V5.83332C14.8334 2.61168 12.2217 0 9.00007 0C5.77839 0 3.16675 2.61168 3.16675 5.83332V7.02C1.65011 7.68191 0.668936 9.17855 0.666748 10.8333V15.8333C0.669482 18.1334 2.53335 19.9973 4.83339 20H13.1667C15.4667 19.9973 17.3306 18.1334 17.3334 15.8333V10.8333C17.3312 9.17855 16.35 7.68191 14.8334 7.02ZM9.83339 14.1667C9.83339 14.6269 9.4603 15 9.00007 15C8.53983 15 8.16675 14.6269 8.16675 14.1667V12.5C8.16675 12.0398 8.53983 11.6667 9.00007 11.6667C9.4603 11.6667 9.83339 12.0398 9.83339 12.5V14.1667ZM13.1667 6.66668H4.83339V5.83336C4.83339 3.53219 6.69886 1.66668 9.00007 1.66668C11.3013 1.66668 13.1667 3.53215 13.1667 5.83336V6.66668Z" fill="white"/>
</svg>
