<svg width="11" height="15" viewBox="0 0 11 15" fill="none" xmlns="http://www.w3.org/2000/svg">
<path d="M5.49999 14.1495C4.50758 13.3027 3.58771 12.3744 2.74999 11.3743C1.49285 9.87244 6.90558e-07 7.63569 6.90558e-07 5.50425C-0.000544514 4.41571 0.321756 3.35147 0.926114 2.44623C1.53047 1.54098 2.38972 0.835416 3.39512 0.418827C4.40051 0.00223731 5.50686 -0.10665 6.57415 0.105944C7.64143 0.318539 8.62168 0.843059 9.39083 1.61312C9.90292 2.12308 10.3088 2.72956 10.585 3.39747C10.8612 4.06538 11.0023 4.78146 11 5.50425C11 7.63569 9.50712 9.87244 8.24998 11.3743C7.41226 12.3744 6.49239 13.3027 5.49999 14.1495ZM5.49999 3.14647C4.87484 3.14647 4.27529 3.39488 3.83324 3.83705C3.39119 4.27922 3.14285 4.87893 3.14285 5.50425C3.14285 6.12957 3.39119 6.72929 3.83324 7.17145C4.27529 7.61363 4.87484 7.86203 5.49999 7.86203C6.12514 7.86203 6.72469 7.61363 7.16673 7.17145C7.60878 6.72929 7.85712 6.12957 7.85712 5.50425C7.85712 4.87893 7.60878 4.27922 7.16673 3.83705C6.72469 3.39488 6.12514 3.14647 5.49999 3.14647Z" fill="#06D6A0"/>
</svg>
