<svg width="14" height="17" viewBox="0 0 14 17" fill="none" xmlns="http://www.w3.org/2000/svg">
<path d="M10.0004 7.4729C10.0004 8.27026 9.68435 9.03496 9.12175 9.59878C8.55914 10.1626 7.79608 10.4793 7.00043 10.4793C6.20478 10.4793 5.44172 10.1626 4.87911 9.59878C4.3165 9.03496 4.00043 8.27026 4.00043 7.4729C4.00043 6.67554 4.3165 5.91084 4.87911 5.34702C5.44172 4.7832 6.20478 4.46645 7.00043 4.46645C7.79608 4.46645 8.55914 4.7832 9.12175 5.34702C9.68435 5.91084 10.0004 6.67554 10.0004 7.4729ZM9.00043 7.4729C9.00043 6.94133 8.78971 6.43153 8.41464 6.05565C8.03957 5.67977 7.53086 5.4686 7.00043 5.4686C6.46999 5.4686 5.96129 5.67977 5.58622 6.05565C5.21114 6.43153 5.00043 6.94133 5.00043 7.4729C5.00043 8.00447 5.21114 8.51427 5.58622 8.89015C5.96129 9.26603 6.46999 9.4772 7.00043 9.4772C7.53086 9.4772 8.03957 9.26603 8.41464 8.89015C8.78971 8.51427 9.00043 8.00447 9.00043 7.4729ZM11.9504 12.4386C13.2633 11.1221 14.0009 9.33711 14.0009 7.47591C14.0009 5.6147 13.2633 3.82967 11.9504 2.51326C11.3005 1.86154 10.5289 1.34454 9.67953 0.991808C8.83019 0.639074 7.91981 0.45752 7.00043 0.45752C6.08104 0.45752 5.17066 0.639074 4.32132 0.991808C3.47198 1.34454 2.70032 1.86154 2.05043 2.51326C0.737526 3.82967 0 5.6147 0 7.47591C0 9.33711 0.737526 11.1221 2.05043 12.4386L3.57143 13.9408L5.61443 15.93L5.74743 16.0483C6.52243 16.6776 7.65743 16.6376 8.38743 15.93L10.8224 13.5549L11.9504 12.4386ZM2.75543 3.21978C3.3128 2.66096 3.97458 2.21767 4.70295 1.91522C5.43132 1.61278 6.21201 1.45711 7.00043 1.45711C7.78885 1.45711 8.56954 1.61278 9.29791 1.91522C10.0263 2.21767 10.6881 2.66096 11.2454 3.21978C12.3401 4.31758 12.9696 5.79662 13.0023 7.34829C13.0351 8.89995 12.4688 10.4044 11.4214 11.5476L11.2454 11.732L9.92442 13.0388L7.69443 15.2115L7.60043 15.2917C7.42753 15.4222 7.21692 15.4929 7.00043 15.4929C6.78394 15.4929 6.57333 15.4222 6.40043 15.2917L6.30743 15.2115L3.32743 12.3003L2.75543 11.732L2.57943 11.5486C1.53208 10.4054 0.965712 8.90095 0.998505 7.34929C1.0313 5.79763 1.66072 4.31859 2.75543 3.22078V3.21978Z" fill="#06D6A0"/>
</svg>
