<svg width="42" height="42" viewBox="0 0 42 42" fill="none" xmlns="http://www.w3.org/2000/svg">
<circle cx="21" cy="21" r="20.5" fill="#EF476F" stroke="white"/>
<path d="M20.9962 11.5938C21.0269 11.7774 21.6154 15.2852 21.6154 16.625C21.6154 18.668 20.5462 20.125 18.9654 20.711L19.4615 30.0117C19.4885 30.5469 19.0692 31 18.5385 31H16.0769C15.55 31 15.1269 30.5508 15.1538 30.0117L15.65 20.711C14.0654 20.125 13 18.6641 13 16.625C13 15.2813 13.5885 11.7774 13.6192 11.5938C13.7423 10.8008 15.3615 10.7891 15.4615 11.6368V17.1524C15.5115 17.2852 16.0423 17.2774 16.0769 17.1524C16.1308 16.1641 16.3808 11.7149 16.3846 11.6133C16.5115 10.8008 18.1038 10.8008 18.2269 11.6133C18.2346 11.7188 18.4808 16.1641 18.5346 17.1524C18.5692 17.2774 19.1038 17.2852 19.15 17.1524V11.6368C19.25 10.793 20.8731 10.8008 20.9962 11.5938V11.5938ZM25.5808 22.7539L25.0038 29.9844C24.9577 30.5313 25.3846 31 25.9231 31H28.0769C28.5885 31 29 30.582 29 30.0625V11.9376C29 11.4219 28.5885 11.0001 28.0769 11.0001C24.9038 11.0001 19.5615 17.9727 25.5808 22.7539Z" stroke="white"/>
</svg>
