<svg width="42" height="42" viewBox="0 0 42 42" fill="none" xmlns="http://www.w3.org/2000/svg">
<circle cx="21" cy="21" r="20.5" fill="#4CC9F0" stroke="white"/>
<path d="M15.8438 15.2143H16.189L16.3113 14.8914L16.8398 13.4963C17.0656 12.9008 17.6463 12.5 18.3016 12.5H23.6941C24.3494 12.5 24.9301 12.9008 25.1559 13.4963L25.1563 13.4973L25.6891 14.8927L25.812 15.2143H26.1562H29.9375C30.8062 15.2143 31.5 15.9084 31.5 16.75V28.9643C31.5 29.8059 30.8062 30.5 29.9375 30.5H12.0625C11.1938 30.5 10.5 29.8059 10.5 28.9643V16.75C10.5 15.9084 11.1938 15.2143 12.0625 15.2143H15.8438ZM26.6562 22.8571C26.6562 19.7673 24.1145 17.2679 21 17.2679C17.8855 17.2679 15.3438 19.7673 15.3438 22.8571C15.3438 25.947 17.8855 28.4464 21 28.4464C24.1145 28.4464 26.6562 25.947 26.6562 22.8571ZM24.2812 22.8571C24.2812 24.6318 22.814 26.0893 21 26.0893C19.186 26.0893 17.7188 24.6318 17.7188 22.8571C17.7188 21.0825 19.186 19.625 21 19.625C22.814 19.625 24.2812 21.0825 24.2812 22.8571Z" stroke="white"/>
</svg>
