<svg width="42" height="42" viewBox="0 0 42 42" fill="none" xmlns="http://www.w3.org/2000/svg"><circle cx="21" cy="21" r="20.5" fill="#06D6A0" stroke="white"/><path d="M15.325 21.4469C16.9102 21.4469 18.2 20.1106 18.2 18.4682C18.2 16.8258 16.9102 15.4895 15.325 15.4895C13.7398 15.4895 12.45 16.8258 12.45 18.4682C12.45 20.1106 13.7398 21.4469 15.325 21.4469ZM27.975 16.681H19.925C19.6073 16.681 19.35 16.9475 19.35 17.2767V22.6384H11.3V14.8937C11.3 14.5646 11.0427 14.298 10.725 14.298H9.575C9.25731 14.298 9 14.5646 9 14.8937V28.0001C9 28.3292 9.25731 28.5958 9.575 28.5958H10.725C11.0427 28.5958 11.3 28.3292 11.3 28.0001V26.2129H29.7V28.0001C29.7 28.3292 29.9573 28.5958 30.275 28.5958H31.425C31.7427 28.5958 32 28.3292 32 28.0001V20.8512C32 18.5479 30.1981 16.681 27.975 16.681Z" stroke="white" stroke-width="1.5"/></svg>
