<svg width="20" height="20" viewBox="0 0 20 20" fill="none" xmlns="http://www.w3.org/2000/svg">
<path d="M19.6343 17.8712L15.7634 13.9986C18.6598 10.1279 17.87 4.6421 13.9994 1.74567C10.1288 -1.15077 4.64293 -0.361004 1.74649 3.50964C-1.14994 7.38029 -0.36018 12.8661 3.51047 15.7626C6.61969 18.0892 10.8901 18.0892 13.9994 15.7626L17.872 19.6351C18.3587 20.1218 19.1477 20.1218 19.6343 19.6351C20.121 19.1485 20.121 18.3595 19.6343 17.8728L19.6343 17.8712ZM8.78721 15.0151C5.34716 15.0151 2.55848 12.2264 2.55848 8.78638C2.55848 5.34634 5.34716 2.55766 8.78721 2.55766C12.2273 2.55766 15.0159 5.34634 15.0159 8.78638C15.0123 12.2249 12.2257 15.0114 8.78721 15.0151Z" fill="#14213D"/>
</svg>
