<svg width="20" height="21" viewBox="0 0 20 21" fill="none" xmlns="http://www.w3.org/2000/svg">
<path d="M10 0C4.47702 0 0 4.63782 0 10.3592C0 16.0805 4.47702 20.7184 10 20.7184C15.523 20.7184 20 16.0805 20 10.3592C20 4.63782 15.523 0 10 0ZM9.54274 10.0346C9.42621 10.236 9.21613 10.3592 8.98952 10.3592H8.97702C8.80605 10.3592 8.64194 10.4298 8.52097 10.5551L8.29274 10.7915C8.16693 10.9218 8.16693 11.1336 8.29274 11.2639L8.52097 11.5004C8.64194 11.6257 8.71008 11.7957 8.71008 11.9728V12.3642C8.71008 12.7334 8.42137 13.0325 8.06492 13.0325H7.81855C7.57419 13.0325 7.35081 12.8897 7.24153 12.6628L6.32944 10.7735C6.23105 10.5697 5.96855 10.5254 5.8129 10.6867L5.02782 11.4995C4.90685 11.6248 4.74274 11.6954 4.57177 11.6954H2.04879C1.98065 11.2593 1.93548 10.8153 1.93548 10.3592C1.93548 5.75268 5.55323 2.005 10 2.005C10.8673 2.005 11.7016 2.15162 12.4851 2.41519L10.4625 4.02462C10.2565 4.16706 10.2758 4.48661 10.4972 4.60148L10.9339 4.82746C11.1524 4.94066 11.2903 5.17207 11.2903 5.4252V8.68834C11.2903 8.87297 11.146 9.02251 10.9677 9.02251H10.8444C10.7222 9.02251 10.6105 8.95108 10.556 8.83788C10.4931 8.70756 10.3157 8.70045 10.2431 8.82535L9.54274 10.0346ZM16.4516 14.6378C16.4516 14.8149 16.3835 14.9849 16.2625 15.1102L15.8766 15.5099C15.7556 15.6353 15.5915 15.7058 15.4206 15.7058H14.8093C14.6383 15.7058 14.4742 15.6353 14.3532 15.5099L13.8286 14.9665C13.6968 14.83 13.5331 14.7311 13.3535 14.6796C13.1739 14.6281 12.9844 14.6256 12.8036 14.6724L11.946 14.8947C11.8948 14.908 11.8423 14.9147 11.7895 14.9147H11.3726C11.2016 14.9147 11.0375 14.8441 10.9165 14.7188L10.4363 14.2213C10.3758 14.1586 10.3419 14.0735 10.3419 13.9849V13.5588C10.3419 13.4222 10.4222 13.2994 10.5448 13.2485L12.131 12.591C12.2109 12.558 12.2867 12.515 12.3565 12.4636L13.3125 11.7581C13.3671 11.7178 13.4325 11.6962 13.4996 11.6963H13.9871C14.1173 11.6963 14.2351 11.7773 14.2851 11.9022L14.5008 12.4389C14.5131 12.4694 14.5337 12.4954 14.5602 12.5136C14.5867 12.5319 14.6178 12.5417 14.6496 12.5417H14.8028C14.8746 12.5417 14.9379 12.4924 14.9577 12.4214L15.127 11.817C15.1472 11.7456 15.2101 11.6967 15.2819 11.6967H15.5262C15.6153 11.6967 15.6875 11.7714 15.6875 11.8638V12.4039C15.6875 12.4924 15.7214 12.5776 15.7819 12.6403L16.2621 13.1378C16.3831 13.2631 16.4512 13.4331 16.4512 13.6102V14.6378H16.4516Z" fill="#14213D"/>
</svg>
